<svg width="64" height="64" viewBox="0 0 64 64" fill="none" xmlns="http://www.w3.org/2000/svg">
<rect width="64" height="64" rx="7.29114" fill="#176FC1"/>
<path d="M33.6009 34.4902H39.8609L34.6571 29.2529H28.1211V35.5799L33.6009 41.0972V34.4902Z" fill="white"/>
<path d="M53.4662 48.2587L42.4638 37.2842H36.3418V43.7113L46.798 54.3926H53.4662V48.2587Z" fill="white"/>
<path d="M32 7C30.7707 7.00026 29.5429 7.08436 28.326 7.25166L26.0302 13.2621C27.9647 12.6921 29.9767 12.4023 32 12.4022C34.16 12.402 36.3063 12.7318 38.3586 13.3795L36.1945 7.32925C34.8079 7.1107 33.4051 7.00059 32 7ZM16.8369 11.6934C14.6928 13.1736 12.7957 14.9592 11.2107 16.9887L14.0043 22.7957C15.9805 19.2233 19.0582 16.3268 22.8149 14.5036L16.839 11.6934H16.8369ZM47.6156 12.0122L41.5718 14.6965C45.287 16.5969 48.2993 19.5565 50.1953 23.1689L53.1164 17.4165C51.5784 15.3573 49.7236 13.535 47.6156 12.0122ZM12.6445 25.8596L6.3456 27.9378C6.1156 29.2806 6.00002 30.6392 6 32C6.00014 33.1725 6.08607 34.3435 6.25714 35.5043L12.5046 37.7168C11.9169 35.8638 11.6181 33.9373 11.618 32C11.6181 29.9137 11.9646 27.8408 12.6445 25.8596ZM51.4954 26.2853C52.0829 28.1376 52.3817 30.0634 52.382 32C52.3819 34.0863 52.0354 36.1592 51.3555 38.1404L57.6544 36.0622C57.8844 34.7194 58 33.3608 58 32C57.9998 30.8282 57.9138 29.6579 57.7429 28.4978L51.4954 26.2853ZM13.8047 40.8311L10.8836 46.5856C12.4218 48.6441 14.2766 50.4656 16.3844 51.9878L22.4282 49.3035C18.713 47.4031 15.7007 44.4435 13.8047 40.8311ZM25.6414 50.6205L27.8055 56.6708C29.1921 56.8893 30.5949 56.9994 32 57C33.2293 56.9997 34.4571 56.9156 35.674 56.7483L37.4555 52.0822L36.4825 51.1175C35.0128 51.4362 33.5098 51.5977 32 51.5978C29.84 51.598 27.6937 51.2682 25.6414 50.6205ZM33.7092 45.6379C33.3102 45.7224 33.1033 45.6927 32.1046 45.6927C24.9583 45.6927 18.8805 39.702 18.8805 31.934C18.8805 24.1661 24.8915 18.3077 32.1046 18.3077C39.3178 18.3077 45.062 24.1665 45.062 31.934C45.062 33.1976 44.9075 34.4127 44.6223 35.5645L51.2367 42.307C52.942 39.2603 53.8962 35.7188 53.8962 31.8824C53.8962 19.9103 44.5246 10.9463 31.9714 10.9463C19.4754 10.9459 10.1038 19.851 10.1038 31.882C10.1038 43.9714 19.4754 53.0538 31.9711 53.0538C35.1963 53.0538 37.4745 52.5409 39.8627 51.7407L33.7092 45.6379Z" fill="white"/>
</svg>
